<?xml version="1.0" encoding="utf-8"?>
<!-- Generator: Adobe Illustrator 23.0.2, SVG Export Plug-In . SVG Version: 6.00 Build 0)  -->
<svg version="1.1" id="emoji" xmlns="http://www.w3.org/2000/svg" xmlns:xlink="http://www.w3.org/1999/xlink" x="0px" y="0px"
	 viewBox="0 0 72 72" style="enable-background:new 0 0 72 72;" xml:space="preserve">
<style type="text/css">
	.st0{fill:#EA5A47;}
	.st1{fill:#D22F27;}
	.st2{fill:none;stroke:#000000;stroke-width:2;stroke-linecap:round;stroke-linejoin:round;}
</style>
<g id="color">
	<g id="_600YlC">
		<g>
			<path class="st0" d="M38.5,14.7l0.4,3.1l0.4,0.1l1.4-2.6l2.2,0.8c-0.1,1.6-1.7,4.2,1.1,5.3c-1.8,0.6-2.8,1.2-4.6,0
				c-1-0.7-2.6,0.1-3.2,0.3c-0.8,0.3-1.6,0.7-1.5,1.9c0,0.3,0.4,0.7-0.4,1.7c-1.6,1.8-2.7,1.6-4.7,5.2c-2.4-3.2-1.2-9.9,2.9-12.3
				l-0.5-1.9l2.1-0.9l1.6,2.6l0.9-3.2C36.5,14.7,38.5,14.7,38.5,14.7z"/>
			<path class="st1" d="M37.9,51.3c1.8-3.7,2.5-7.9,2.1-12c-0.4-3.6-0.2-3.3,0.2-4.9c2.8,2.3,6.4,1.9,9.3,1.2
				c0.8,1.3,1.1,2.9,0.7,4.5c-0.9,5.5-3.4,10.6-7.3,14.6c-3.2,3.3-6.4,3.6-10.1,0.8c-5.1-3.9-9.5-8.5-11.2-15.1
				c-0.9-3.5,1.9-9.1,5.4-10.4c0.8-0.3,1.7-0.1,2.3,0.5c1.8,1.7,3.2,3.9,4,6.2c0.6,1.6,1.2,3.2,1.8,4.9c-2.9-8.3-4.2-9.8-5.8-11.1
				c1-2.5,3.8-4.3,4.7-5.2c0.3-0.4,0.5-0.9,0.5-1.4c-0.3-0.8,0.1-1.7,0.9-2.1c0.1,0,0.1,0,0.2-0.1c1.4-0.6,2.7-1.3,4.2-0.1
				c0.8,0.4,1.7,0.4,2.5,0.1c2.2-0.7,4.3-1.6,6.2-2.3l2.5,5.1c-1.5,1.1-3.4,2.3-5.2,3.6c-1.4,1-2.7,2.2-3.9,3.4
				c-1.8,1.8-2.6,4.4-2.1,6.9c0.7,4.1,0.1,8.4-1.7,12.1C38,50.9,38,51.1,37.9,51.3z"/>
			<path class="st0" d="M29.4,30.5c-3-2.6-6.5,3-7.4,5.8c-1-1.7-1.3-3.7-0.9-5.6c1.1-4,2.3-7.9,3.4-11.8h6.9c-0.7,0.6-1.2,1.2-1.7,2
				c-1.5,2.4-1.9,5.3-1.1,8C28.7,29.5,29,30,29.4,30.5z"/>
			<path class="st0" d="M45.9,28.2c1.5,1.5,2.3,3.4,2.3,5.5c0,0.4,0.1,2.1-0.2,2.2c-1.9,0.4-3.9,0.3-5.7-0.3c-2.4-0.9-2.1-1.8-1-3.1
				C42.6,30.9,44.2,29.5,45.9,28.2z"/>
		</g>
	</g>
</g>
<g id="line">
	<g id="_600YlC-2">
		<g>
			<path class="st2" d="M38.5,14.7l0.4,3.1l0.4,0.1l1.4-2.6l2.2,0.8c-0.1,1.6-1.7,4.2,1.1,5.3c-1.8,0.6-2.8,1.2-4.6,0
				c-1-0.7-2.6,0.1-3.2,0.3c-0.8,0.3-1.6,0.7-1.5,1.9c0,0.3,0.4,0.7-0.4,1.7c-1.6,1.8-2.7,1.6-4.7,5.2c-2.4-3.2-1.2-9.9,2.9-12.3
				l-0.5-1.9l2.1-0.9l1.6,2.6l0.9-3.2C36.5,14.7,38.5,14.7,38.5,14.7z"/>
			<path class="st2" d="M37.9,51.3c1.8-3.7,2.5-7.9,2.1-12c-0.4-3.6-0.2-3.3,0.2-4.9c2.8,2.3,6.4,1.9,9.3,1.2
				c0.8,1.3,1.1,2.9,0.7,4.5c-0.9,5.5-3.4,10.6-7.3,14.6c-3.2,3.3-6.4,3.6-10.1,0.8c-5.1-3.9-9.5-8.5-11.2-15.1
				c-0.9-3.5,1.9-9.1,5.4-10.4c0.8-0.3,1.7-0.1,2.3,0.5c1.8,1.7,3.2,3.9,4,6.2c0.6,1.6,1.2,3.2,1.8,4.9c-2.9-8.3-4.2-9.8-5.8-11.1
				c1-2.5,3.8-4.3,4.7-5.2c0.3-0.4,0.5-0.9,0.5-1.4c-0.3-0.8,0.1-1.7,0.9-2.1c0.1,0,0.1,0,0.2-0.1c1.4-0.6,2.7-1.3,4.2-0.1
				c0.8,0.4,1.7,0.4,2.5,0.1c2.2-0.7,4.3-1.6,6.2-2.3l2.5,5.1c-1.5,1.1-3.4,2.3-5.2,3.6c-1.4,1-2.7,2.2-3.9,3.4
				c-1.8,1.8-2.6,4.4-2.1,6.9c0.7,4.1,0.1,8.4-1.7,12.1C38,50.9,38,51.1,37.9,51.3z"/>
			<path class="st2" d="M29.4,30.5c-3-2.6-6.5,3-7.4,5.8c-1-1.7-1.3-3.7-0.9-5.6c1.1-4,2.3-7.9,3.4-11.8h6.9c-0.7,0.6-1.2,1.2-1.7,2
				c-1.5,2.4-1.9,5.3-1.1,8C28.7,29.5,29,30,29.4,30.5z"/>
			<path class="st2" d="M45.9,28.2c1.5,1.5,2.3,3.4,2.3,5.5c0,0.4,0.1,2.1-0.2,2.2c-1.9,0.4-3.9,0.3-5.7-0.3c-2.4-0.9-2.1-1.8-1-3.1
				C42.6,30.9,44.2,29.5,45.9,28.2z"/>
		</g>
	</g>
</g>
</svg>
